<?xml version="1.0" encoding="UTF-8"?>
<svg xmlns="http://www.w3.org/2000/svg" xmlns:xlink="http://www.w3.org/1999/xlink" width="375pt" height="374.999991pt" viewBox="0 0 375 374.999991" version="1.2">
<defs>
<clipPath id="clip1">
  <path d="M 104.261719 2 L 318 2 L 318 375 L 104.261719 375 Z M 104.261719 2 "/>
</clipPath>
</defs>
<g id="surface1">
<g clip-path="url(#clip1)" clip-rule="nonzero">
<path style=" stroke:none;fill-rule:nonzero;fill:rgb(9.799194%,50.979614%,61.569214%);fill-opacity:1;" d="M 309.894531 170.007812 L 150.40625 10.453125 C 140.019531 0.0625 123.183594 0.0625 112.796875 10.453125 C 107.761719 15.488281 105.167969 22.042969 105.015625 28.644531 C 104.855469 35.65625 104.257812 343.742188 105.199219 351.570312 C 105.886719 357.28125 108.417969 362.808594 112.796875 367.191406 C 117.988281 372.386719 124.796875 374.984375 131.601562 374.984375 C 138.40625 374.984375 145.214844 372.386719 150.40625 367.191406 L 309.894531 207.632812 C 320.28125 197.242188 320.28125 180.398438 309.894531 170.007812 "/>
</g>
</g>
</svg>
