<?xml version="1.0" encoding="UTF-8"?>
<svg xmlns="http://www.w3.org/2000/svg" xmlns:xlink="http://www.w3.org/1999/xlink" width="375pt" height="374.999991pt" viewBox="0 0 375 374.999991" version="1.2">
<g id="surface1">
<path style=" stroke:none;fill-rule:nonzero;fill:rgb(92.158508%,77.648926%,19.219971%);fill-opacity:1;" d="M 375 187.5 C 375 291.054688 291.054688 375 187.5 375 C 83.945312 375 0 291.054688 0 187.5 C 0 83.945312 83.945312 0 187.5 0 C 291.054688 0 375 83.945312 375 187.5 "/>
<path style=" stroke:none;fill-rule:nonzero;fill:rgb(80.778503%,54.899597%,16.859436%);fill-opacity:1;" d="M 372.46875 218.378906 L 297.507812 143.417969 C 295.210938 139.992188 291.527344 137.777344 287.375 137.777344 L 153.144531 137.777344 C 153.042969 137.777344 152.945312 137.78125 152.84375 137.785156 L 124.65625 109.539062 L 88.179688 85.21875 C 84.289062 82.621094 79.023438 83.675781 76.425781 87.570312 C 73.828125 91.464844 74.882812 96.726562 78.773438 99.324219 L 111.480469 132.140625 L 111.480469 238.1875 C 111.480469 241.476562 113.351562 244.324219 116.089844 245.730469 L 126.300781 256.28125 C 119.972656 259.152344 115.570312 265.523438 115.570312 272.929688 C 115.570312 278.910156 118.449219 284.222656 122.894531 287.558594 L 209.105469 373.769531 C 292.277344 364.226562 358.902344 300.261719 372.46875 218.378906 "/>
<path style=" stroke:none;fill-rule:nonzero;fill:rgb(74.508667%,19.60907%,13.328552%);fill-opacity:1;" d="M 242.382812 246.664062 L 119.957031 246.664062 C 115.273438 246.664062 111.480469 242.867188 111.480469 238.1875 L 111.480469 121.128906 L 78.773438 99.324219 C 74.882812 96.726562 73.828125 91.464844 76.425781 87.570312 C 79.023438 83.675781 84.289062 82.621094 88.179688 85.21875 L 124.65625 109.539062 C 127.015625 111.113281 128.429688 113.757812 128.429688 116.589844 L 128.429688 229.710938 L 242.382812 229.710938 C 247.066406 229.710938 250.859375 233.503906 250.859375 238.1875 C 250.859375 242.867188 247.066406 246.664062 242.382812 246.664062 "/>
<path style=" stroke:none;fill-rule:nonzero;fill:rgb(74.508667%,19.60907%,13.328552%);fill-opacity:1;" d="M 152.125 272.929688 C 152.125 283.019531 143.941406 291.203125 133.851562 291.203125 C 123.753906 291.203125 115.570312 283.019531 115.570312 272.929688 C 115.570312 262.832031 123.753906 254.648438 133.851562 254.648438 C 143.941406 254.648438 152.125 262.832031 152.125 272.929688 "/>
<path style=" stroke:none;fill-rule:nonzero;fill:rgb(74.508667%,19.60907%,13.328552%);fill-opacity:1;" d="M 242.382812 272.929688 C 242.382812 283.019531 234.195312 291.203125 224.105469 291.203125 C 214.007812 291.203125 205.828125 283.019531 205.828125 272.929688 C 205.828125 262.832031 214.007812 254.648438 224.105469 254.648438 C 234.195312 254.648438 242.382812 262.832031 242.382812 272.929688 "/>
<path style=" stroke:none;fill-rule:nonzero;fill:rgb(74.508667%,19.60907%,13.328552%);fill-opacity:1;" d="M 271.066406 200.070312 C 271.066406 207.796875 264.808594 214.058594 257.085938 214.058594 L 154.507812 214.058594 C 146.785156 214.058594 140.523438 207.796875 140.523438 200.070312 C 140.523438 192.347656 146.785156 186.085938 154.507812 186.085938 L 257.085938 186.085938 C 264.808594 186.085938 271.066406 192.347656 271.066406 200.070312 "/>
<path style=" stroke:none;fill-rule:nonzero;fill:rgb(74.508667%,19.60907%,13.328552%);fill-opacity:1;" d="M 300 151.761719 C 300 159.488281 294.355469 165.75 287.375 165.75 L 153.144531 165.75 C 146.171875 165.75 140.523438 159.488281 140.523438 151.761719 C 140.523438 144.035156 146.171875 137.777344 153.144531 137.777344 L 287.375 137.777344 C 294.355469 137.777344 300 144.035156 300 151.761719 "/>
</g>
</svg>
